<svg xmlns="http://www.w3.org/2000/svg" xmlns:xlink="http://www.w3.org/1999/xlink" version="1.1" x="0px" y="0px" viewBox="0 0 512 640" style="enable-background:new 0 0 512 512;" xml:space="preserve"><g><path d="M328.733,189.971c-1.437-1.667-3.518-2.615-5.709-2.615h-14.285l11.062-96.338c0.239-2.136-0.442-4.273-1.86-5.875   c-1.436-1.611-3.481-2.523-5.636-2.523h-25.507c-3.886,0-7.127,2.937-7.514,6.796l-9.687,97.94h-3.657l1.953-71.77   c0.055-2.035-0.718-4.006-2.136-5.461c-1.418-1.464-3.37-2.284-5.405-2.284h-25.609c-4.153,0-7.523,3.352-7.542,7.505l-0.367,72.01   h-3.02l2.402-110.795c0.046-2.035-0.727-3.987-2.146-5.442c-1.427-1.446-3.37-2.265-5.396-2.265h-25.71   c-4.153,0-7.514,3.352-7.542,7.496l-0.664,111.007h-3.414l-2.497-82.903c-0.12-4.07-3.462-7.311-7.542-7.311h-25.802   c-2.072,0-4.042,0.847-5.47,2.348c-1.427,1.501-2.173,3.518-2.063,5.58l4.259,82.286h-3.336l-7.894-97.802   c-0.322-3.914-3.591-6.934-7.523-6.934H97.584c-2.127,0-4.162,0.902-5.59,2.477c-1.437,1.584-2.127,3.693-1.915,5.82l9.675,96.44   H96.52L82.804,75.474c-0.46-3.775-3.674-6.621-7.486-6.621H49.323c-2.182,0-4.263,0.948-5.691,2.597   c-1.437,1.648-2.081,3.831-1.777,5.995l15.468,109.911H40.915c-2.192,0-4.273,0.948-5.709,2.615   c-1.437,1.658-2.072,3.858-1.75,6.031l38.224,259.161c0.543,3.702,3.72,6.446,7.459,6.446h205.651c3.739,0,6.925-2.744,7.459-6.446   l38.233-259.161C330.814,193.83,330.169,191.629,328.733,189.971z M293.631,97.703h10.221l-10.301,89.653h-8.788L293.631,97.703z    M242.248,122.925h10.35l-1.753,64.431h-8.926L242.248,122.925z M200.46,83.937h10.507l-2.243,103.419h-8.882L200.46,83.937z    M163.986,112.225l2.262,75.131h-8.911l-3.885-75.131H163.986z M116.516,97.703l7.234,89.653h-8.837l-8.997-89.653H116.516z    M68.642,83.937l12.68,103.419h-8.768L58.006,83.937H68.642z M278.271,446.508H85.65L49.654,202.439h40.112   c0.028,0,0.046,0.028,0.074,0.028c0.152,0,0.31-0.018,0.465-0.028h57.17h44.734h0.046h23.684h0.166h17.33h0.866h0.037h23.647h0.203   h56.107L278.271,446.508z"/><path d="M181.97,279.854c-49.035,0-88.925,27.386-88.925,61.052s39.891,61.07,88.925,61.07s88.925-27.404,88.925-61.07   S231.004,279.854,181.97,279.854z M181.97,386.874c-40.029,0-73.842-21.05-73.842-45.968c0-24.918,33.813-45.95,73.842-45.95   s73.842,21.032,73.842,45.95C255.812,365.824,221.998,386.874,181.97,386.874z"/><path d="M472.568,417.28c-7.238-12.763-5.893-46.926-4.788-58.86l4.973-43.758c0.085-0.754,0.078-1.516,0.158-2.271   c0.016-0.203,0.119-0.376,0.119-0.584c0-0.101-0.054-0.185-0.058-0.285c1.535-15.056,1.965-30.238,1.052-45.213l-2.836-46.769   c-0.681-11.17-2.726-22.275-6.704-34.458c-1.4-2.486-3.886-7.772-7.717-18.813c-8.214-23.518-13.923-48.62-16.943-74.616   l-0.442-3.812c3.518-2.542,5.838-6.685,5.838-11.363V59.881c0.158-0.829,0.221-1.585,0.221-2.133c0-1.059,0.074-3.094,0.166-5.129   c0.092-2.311,0.203-4.632,0.203-5.857c0-3.508,0-14.181-41.364-14.181c-41.346,0-41.346,10.673-41.346,14.181   c0,1.068-0.074,3.103-0.166,5.147c-0.092,2.302-0.203,4.613-0.203,5.838c0,0.833,0.036,2.086,0.589,3.489v15.241   c0,4.678,2.32,8.822,5.838,11.363l-0.442,3.812c-3.02,25.995-8.73,51.097-16.943,74.625c-3.831,11.032-6.317,16.317-8.343,20.258   c-3.352,10.728-5.396,21.833-6.078,33.003l-2.836,46.769c-0.913,15.075-0.482,30.266,1.052,45.217   c-0.003,0.099-0.058,0.182-0.058,0.282c0,0.205,0.101,0.378,0.117,0.578c0.079,0.755,0.073,1.524,0.159,2.277l4.936,43.611   c1.142,12.081,2.486,46.226-4.752,59.007c-7.606,13.389-8.103,29.872-1.252,41.99c4.807,8.49,15.341,18.748,38.123,19.319   l23.794,0.663c3.996,0.111,8.011,0.166,12.026,0.166c9.098,0,18.177-0.276,27.017-0.829c22.8-0.571,33.316-10.829,38.123-19.338   C480.653,447.152,480.174,430.669,472.568,417.28z M377.998,52.545c0.037-0.727,0.074-1.446,0.092-2.136   c3.831-1.179,12.689-2.744,26.354-2.744c13.426,0,22.211,1.51,26.152,2.68c-0.018,0.534-0.037,1.087-0.055,1.63   c-0.037,0.718-0.074,1.437-0.092,2.127c-3.849,1.179-12.708,2.744-26.373,2.744c-13.426,0-22.192-1.51-26.133-2.68   C377.961,53.641,377.979,53.088,377.998,52.545z M357.205,192.485c2.505-4.466,5.396-11.409,8.822-21.244   c8.582-24.559,14.531-50.747,17.68-77.839l1.123-9.595c0.239-2.136,0.111-3.739-1.326-5.341c-1.418-1.611-2.928-1.989-5.083-1.989   v-6.709c6,1.28,14.087,2.161,25.655,2.161c12.333,0,20.672-1.006,26.747-2.431l0.381,5.893c-2.155,0-4.199,0.921-5.636,2.523   c-1.436,1.611-2.1,3.757-1.86,5.893l1.123,9.595c3.149,27.091,9.098,53.28,17.68,77.829c3.426,9.844,6.317,16.787,8.195,19.798   c2.18,6.993,3.516,14.186,4.436,21.428H353.364C354.252,205.328,355.49,198.387,357.205,192.485z M349.581,267.23l2.407-39.688   h104.564l2.407,39.688c0.746,12.266,0.389,24.669-0.594,37.027H350.168C349.177,291.966,348.821,279.564,349.581,267.23z    M460.671,451.83c-5.23,9.264-16.686,11.474-25.636,11.695c-12.579,0.773-25.36,0.958-37.994,0.663l-23.813-0.663   c-8.674-0.221-20.13-2.431-25.378-11.695c-4.844-8.582-2.763-20.074,1.234-27.109c10.866-19.153,7.127-62.93,6.648-67.995   l-4.229-37.368h105.532l-4.265,37.515c-0.46,4.917-4.199,48.694,6.685,67.847C463.452,431.756,465.533,443.248,460.671,451.83z"/></g><text x="0" y="527" fill="#000000" font-size="5px" font-weight="bold" font-family="'Helvetica Neue', Helvetica, Arial-Unicode, Arial, Sans-serif">Created by Econceptive</text><text x="0" y="532" fill="#000000" font-size="5px" font-weight="bold" font-family="'Helvetica Neue', Helvetica, Arial-Unicode, Arial, Sans-serif">from the Noun Project</text></svg>