<svg xmlns="http://www.w3.org/2000/svg" viewBox="0 0 64 80" x="0px" y="0px"><title>Cappuccino-coffee-coffeecup-cup-espresso_1</title><path d="M35.939,13.06a2.886,2.886,0,0,1-3.957,0,.205.205,0,0,0-.284,0l-.73.686a2.212,2.212,0,0,1-2.364.43l-.241-.1a.193.193,0,0,0-.22.036.2.2,0,0,0-.063.213l.152.551a2.219,2.219,0,0,1-.522,2.107l-.749.794a.211.211,0,0,0,0,.29l.436.463a2.214,2.214,0,0,1,0,3.031l-.436.464a.21.21,0,0,0,0,.288l.061.058a2.584,2.584,0,0,1,.017,3.66c-.132.134-.134.262-.057.344l.42.445a2.215,2.215,0,0,1,0,3.029L27.254,30H39.2l1.088-4.9a2.6,2.6,0,0,1-.168-.8,2.572,2.572,0,0,1,.7-1.863l.078-.082.064-.288c-.008-.016-.006-.034-.018-.048l-.438-.465a2.213,2.213,0,0,1,0-3.029l.439-.465a.211.211,0,0,0,0-.289l-.678-.718a2.212,2.212,0,0,1-.431-2.37l.141-.335a.211.211,0,0,0-.265-.28l-.463.167a2.2,2.2,0,0,1-2.267-.468l-.751-.709A.208.208,0,0,0,35.939,13.06Zm-.491,15.387-.66.7L33.33,27.781l.661-.7a.212.212,0,0,0,0-.289l-.441-.468a2.214,2.214,0,0,1,0-3.028l.42-.445a.211.211,0,0,0,0-.292,2.657,2.657,0,0,1,.022-3.769.21.21,0,0,0,0-.29l-.437-.464,1.456-1.371.437.464a2.211,2.211,0,0,1,0,3.03.724.724,0,0,0-.254.523.654.654,0,0,0,.191.467,2.2,2.2,0,0,1,.044,3.072l-.421.445a.211.211,0,0,0,0,.288l.441.468A2.212,2.212,0,0,1,35.448,28.447Z"/><path d="M15.688,21H21a1,1,0,0,1,.976.783L23.8,30h1.153a2.2,2.2,0,0,1,.547-1.056l.441-.469a.21.21,0,0,0,0-.288l-.419-.445a2.2,2.2,0,0,1,.042-3.072.638.638,0,0,0,.222-.468.58.58,0,0,0-.174-.412l-.087-.087a2.218,2.218,0,0,1-.022-3.053l.436-.463a.213.213,0,0,0,0-.291l-.437-.462a2.216,2.216,0,0,1,0-3.033l.75-.795a.207.207,0,0,0,.05-.2l-.153-.551a2.205,2.205,0,0,1,0-1.19,2.576,2.576,0,0,1-.3-1.118l0-.18a.211.211,0,0,0-.2-.2l-.639-.019A2.212,2.212,0,0,1,22.866,10l-.02-.637a.209.209,0,0,0-.2-.2l-.99-.029A2.212,2.212,0,0,1,19.674,7.76l-.138-.334a.194.194,0,0,0-.189-.132c-.113-.019-.157.038-.2.121l-.209.444a2.2,2.2,0,0,1-1.935,1.272l-1.031.03a.209.209,0,0,0-.2.2l-.05,1.67a1,1,0,0,1-.261.748,1.047,1.047,0,0,1-.776.326l-1.711.053a.21.21,0,0,0-.2.2l-.031,1a2.216,2.216,0,0,1-1.367,1.975l-.241.1a.209.209,0,0,0-.025.377l.5.28a2.224,2.224,0,0,1,1.121,1.859l.032,1.094a.212.212,0,0,0,.2.2l.637.019A2.214,2.214,0,0,1,15.688,21Zm1.378-7.949.638.018a2.217,2.217,0,0,1,2.144,2.144.721.721,0,0,0,.189.549.658.658,0,0,0,.466.2,2.2,2.2,0,0,1,2.2,2.143l.018.61a.211.211,0,0,0,.2.2l.642.02-.06,2-.643-.02a2.214,2.214,0,0,1-2.142-2.142l-.018-.611a.21.21,0,0,0-.21-.2,2.656,2.656,0,0,1-2.649-2.681.211.211,0,0,0-.2-.207l-.636-.018Z"/><path d="M24.845,9.305l.02.636a.209.209,0,0,0,.2.2l.64.019a2.2,2.2,0,0,1,2.117,1.948,2.174,2.174,0,0,1,1.307.114l.242.1a.21.21,0,0,0,.226-.04l.729-.686a2.209,2.209,0,0,1,3.028,0,.882.882,0,0,0,1.211,0,2.2,2.2,0,0,1,.738-.457,2.209,2.209,0,0,1,.3-2.62l.438-.464a.212.212,0,0,0,0-.289l-.679-.719a2.212,2.212,0,0,1-.431-2.37l.141-.335a.211.211,0,0,0-.265-.28l-.463.167a2.2,2.2,0,0,1-2.267-.468l-.751-.709a.207.207,0,0,0-.287,0,2.889,2.889,0,0,1-3.958,0,.2.2,0,0,0-.284,0l-.73.686a2.213,2.213,0,0,1-2.364.43l-.241-.1a.209.209,0,0,0-.283.249l.153.551a2.222,2.222,0,0,1-.523,2.107l-.17.18.064,0A2.211,2.211,0,0,1,24.845,9.305Z"/><path d="M34.458,48.957l-2.822,2.821a18.394,18.394,0,0,0,4.685-.513l.222-.222a1.476,1.476,0,0,0,0-2.086A1.508,1.508,0,0,0,34.458,48.957Z"/><path d="M52.586,16.15l-.444-.207a2.2,2.2,0,0,1-1.272-1.936l-.031-1.03a.209.209,0,0,0-.2-.205A2.878,2.878,0,0,1,47.84,9.986a.212.212,0,0,0-.2-.215l-1-.031a2.213,2.213,0,0,1-1.976-1.368l-.1-.242a.21.21,0,0,0-.377-.023l-.281.5a2.23,2.23,0,0,1-1.858,1.121l-1.094.032a.21.21,0,0,0-.2.2l-.02.637a2.2,2.2,0,0,1-.647,1.5,2.186,2.186,0,0,1,1.734,3.027l-.14.336a.211.211,0,0,0,.04.225l.679.719a2.214,2.214,0,0,1,0,3.032l-.439.465a.211.211,0,0,0,0,.288l.438.465a2.213,2.213,0,0,1,.267.349h5.48A2.2,2.2,0,0,1,50,19.865l.635-.019a.209.209,0,0,0,.2-.2l.03-.99a2.211,2.211,0,0,1,1.37-1.979l.338-.139a.193.193,0,0,0,.13-.188A.2.2,0,0,0,52.586,16.15Zm-4.713-1.379a2.214,2.214,0,0,1-2.142,2.14l-.609.019-.064-2,.611-.02a.212.212,0,0,0,.205-.2l.02-.645,2,.063Z"/><path d="M42.779,23.105l-1.8,8.112A1,1,0,0,1,40,32H23a1,1,0,0,1-.976-.783L20.2,23H13.08l2.846,37H48.074L50.92,23H42.832C42.817,23.036,42.8,23.069,42.779,23.105ZM40,39.016h2v2H40Zm-18,0h2v2H22ZM32,53.792a20.55,20.55,0,0,1-2.244-.134l-.049.049-.06-.06a20.417,20.417,0,0,1-8.162-2.774l1.03-1.715a18.414,18.414,0,0,0,6.53,2.383l4-4a3.559,3.559,0,0,1,4.915,0,3.458,3.458,0,0,1,.974,2.882,18.368,18.368,0,0,0,2.553-1.267l1.03,1.715A20.418,20.418,0,0,1,32,53.792Z"/><text x="0" y="79" fill="#000000" font-size="5px" font-weight="bold" font-family="'Helvetica Neue', Helvetica, Arial-Unicode, Arial, Sans-serif">Created by Turkkub</text><text x="0" y="84" fill="#000000" font-size="5px" font-weight="bold" font-family="'Helvetica Neue', Helvetica, Arial-Unicode, Arial, Sans-serif">from the Noun Project</text></svg>