<svg xmlns:dc="http://purl.org/dc/elements/1.1/" xmlns:cc="http://creativecommons.org/ns#" xmlns:rdf="http://www.w3.org/1999/02/22-rdf-syntax-ns#" xmlns:svg="http://www.w3.org/2000/svg" xmlns="http://www.w3.org/2000/svg" xmlns:sodipodi="http://sodipodi.sourceforge.net/DTD/sodipodi-0.dtd" xmlns:inkscape="http://www.inkscape.org/namespaces/inkscape" version="1.1" x="0px" y="0px" viewBox="0 0 100 125"><g transform="translate(0,-952.36218)"><path d="m 20.081588,968.37953 c 2.05608,0.1683 4.47522,0.9313 6.14085,1.8365 12.95211,7.1234 25.95155,15.2376 38.7683,22.3534 7.77074,4.5069 14.290121,5.763 19.446181,6.5225 2.57802,0.3796 4.80097,0.634 6.73017,1.13977 1.78362,0.554 3.6225,1.3664 4.80722,2.8177 2.45656,3.3828 2.52776,6.9115 1.02349,9.8786 -1.50428,2.967 -4.4061,5.4622 -7.78468,7.5356 -6.75716,4.1467 -15.396781,6.649 -19.756321,6.649 -2.35199,0 -4.61329,-0.204 -6.79221,-0.5699 l -1.60503,0.8364 0.30241,2.4247 c 0.15883,0.4525 -0.0504,1.0077 -0.46522,1.2349 l -8.93221,5.0659 c -0.3946,0.1855 -0.8814,0.28 -1.45769,0.2533 -2.10889,0 -3.84582,-2.322 -3.84582,-5.1925 0,-2.8706 1.38605,-4.5974 3.84582,-5.2242 0,0 2.87154,-0.9941 4.24901,-1.52 -6.94063,-2.4473 -20.97384,-12.912 -28.44043,-18.9657 l 0,0.031 c -3.31092,-2.6552 -6.66583,-6.10797 -10.04874,-9.91017 -3.00616,1.341 -6.02029,2.7207 -9.0252101,4.0842 -0.52661,0.1832 -0.83612,0.2091 -1.39566,0.2221 -2.10889,0 -3.84582,-2.3221 -3.84582,-5.1926 0,-2.8706 1.18866,-4.6645 3.84582,-5.2242 0,0 2.92097,-0.6191 4.3420501,-0.9818 -1.6324101,-1.9569 -3.2739701,-3.9311 -4.6832101,-5.6037 -2.04371,-2.1689 -3.06864,-4.7715 -2.66726,-7.0924 0.40558,-2.3455 2.19069,-4.2914 4.8693,-5.0659 2.14214,-0.5775 4.3064401,-1.1811 6.1408001,-1.6781 2.25429,-0.5711 4.11091,-0.7409 6.23409,-0.6648 z m -15.2592101,7.6625 c -0.57859,1.9873 0.89045,3.8948 2.20209,5.509 6.9924401,8.3573 14.0205601,17.1002 20.5317001,22.32187 13.85662,11.2255 25.48388,21.2136 41.90077,21.2136 3.55104,0 12.332531,-2.4364 18.732851,-6.364 3.20016,-1.9641 5.81529,-4.2962 7.04032,-6.7124 0.59401,-1.1716 0.88534,-2.3431 0.80638,-3.5779 -1.6217,2.2833 -4.06398,4.2592 -6.82322,5.9525 -6.75716,4.1468 -15.396781,6.6491 -19.756331,6.6491 -21.23032,-2.0222 -32.11872,-12.7237 -43.14136,-21.62547 -8.98831,-8.6698 -15.90322,-16.7795 -21.4932001,-23.3663 z m 6.7922101,14.153 -3.0704501,0.7916 c 1.2188,1.6262 1.41291,3.3148 0.89943,5.4459 l 5.3605301,-2.4906 c -1.03423,-1.324 -2.20703,-2.5871 -3.18951,-3.7469 z m -5.7687201,1.5831 c -1.17987,0 -2.109,1.3069 -2.109,2.9129 0,1.6059 0.92913,2.8813 2.109,2.8813 1.17986,0 2.10899,-1.2754 2.10899,-2.8813 0,-1.606 -0.92913,-2.9129 -2.10899,-2.9129 z M 57.826398,1025.435 c -1.60288,0.5811 -3.2075,1.2002 -4.80722,1.8047 1.19361,1.2897 1.5399,3.0983 1.17856,5.2876 l 5.02437,-2.8497 z m -7.31945,2.8178 c -1.17987,0 -2.109,1.307 -2.109,2.913 0,1.6059 0.92913,2.8813 2.109,2.8813 1.17987,0 2.10899,-1.2754 2.10899,-2.8813 0,-1.606 -0.92912,-2.913 -2.10899,-2.913 z" style="text-indent:0;text-transform:none;direction:ltr;block-progression:tb;baseline-shift:baseline;color:#000000;enable-background:accumulate;" fill="#000000" fill-opacity="1" stroke="none" marker="none" visibility="visible" display="inline" overflow="visible"/></g><text x="0" y="115" fill="#000000" font-size="5px" font-weight="bold" font-family="'Helvetica Neue', Helvetica, Arial-Unicode, Arial, Sans-serif">Created by Orin zuu</text><text x="0" y="120" fill="#000000" font-size="5px" font-weight="bold" font-family="'Helvetica Neue', Helvetica, Arial-Unicode, Arial, Sans-serif">from the Noun Project</text></svg>