<svg xmlns="http://www.w3.org/2000/svg" xmlns:xlink="http://www.w3.org/1999/xlink" version="1.1" x="0px" y="0px" viewBox="0 0 128 160" style="enable-background:new 0 0 128 128;" xml:space="preserve"><g><path d="M55.645,79H64c-2.559,0-5.361-0.809-8.191-2.289L55.645,79z"/><path d="M75.371,53.929C75.252,53.977,75.126,54,75,54c-0.115,0-0.231-0.021-0.342-0.061L65,50.428V55c0,0.553-0.447,1-1,1   s-1-0.447-1-1v-4.572l-9.658,3.511c-0.231,0.084-0.485,0.08-0.713-0.011l-13.612-5.445C39.367,60.184,52.33,77,64,77   c11.67,0,24.634-16.816,24.983-28.516L75.371,53.929z M70.963,62.243C70.503,63.888,68.456,67,64,67s-6.503-3.112-6.963-4.757   c-0.094-0.335-0.007-0.694,0.229-0.949C58.676,59.771,60.153,59,61.655,59c0.002,0,0.004,0,0.005,0   c1.015,0.001,1.811,0.355,2.34,0.694c0.529-0.339,1.325-0.693,2.34-0.694c0.001,0,0.003,0,0.005,0c1.502,0,2.979,0.771,4.389,2.294   C70.97,61.549,71.057,61.908,70.963,62.243z"/><path d="M66.342,61c-0.969,0.001-1.601,0.64-1.606,0.646c-0.376,0.409-1.082,0.411-1.464,0.008C63.233,61.613,62.618,61,61.655,61   c-0.008,0-0.016,0-0.024,0c-0.782,0.009-1.608,0.416-2.461,1.213C59.624,63.14,60.918,65,64,65c3.079,0,4.374-1.856,4.829-2.787   C67.968,61.407,67.134,61,66.345,61C66.344,61,66.343,61,66.342,61z"/><rect x="68" y="81" width="9" height="6"/><path d="M72.191,76.705C69.36,78.189,66.557,79,64,79h8.355L72.191,76.705z"/><path d="M37,33c0-0.479,0.341-0.892,0.812-0.982C37.97,31.987,53.68,29,64,29s26.03,2.987,26.188,3.018   C90.659,32.108,91,32.521,91,33v3.78l3-0.6v-8.384l-10.197-2.342c-1.978-0.458-2.607-0.604-2.771-0.97   c-0.594-0.46-2.026-1.518-3.388-2.508l-13.646-0.976L49.43,21.974c-0.977,0.938-1.989,1.931-2.423,2.381   c-0.078,0.467-0.612,0.591-2.81,1.101L34,27.797v8.384l3,0.6V33z"/><path d="M85.918,89.803l-0.339-25.655c-1.111,1.677-2.375,3.315-3.789,4.883c-2.426,2.689-5.041,4.909-7.673,6.567L74.359,79H78   c0.553,0,1,0.447,1,1v7.429C81.577,87.889,83.865,88.717,85.918,89.803z"/><path d="M48.309,20.278c0.169-0.163,0.391-0.261,0.625-0.276l15-1c0.046-0.002,0.092-0.003,0.138,0.001l14,1   c0.187,0.013,0.365,0.078,0.517,0.188c2.114,1.536,3.26,2.368,3.856,2.893c0.894,0.217,5.037,1.17,9.02,2.082   C89.968,16.277,84.328,3,64,3C43.672,3,38.032,16.277,36.535,25.165c3.828-0.877,7.805-1.792,8.901-2.054   C45.902,22.584,46.77,21.752,48.309,20.278z"/><path d="M90.598,52.204c0.561-1.655,1.04-3.44,1.419-5.395c0.697-3.592,0.901-6.698,0.96-8.385L91,38.82V47   c0,0.01-0.004,0.019-0.004,0.029H91V48C91,49.375,90.86,50.782,90.598,52.204z"/><path d="M123,20.429C123,10.824,115.101,3,105.392,3h-0.783c-6.671,0-12.799,3.809-15.772,9.738   c2.378,3.567,3.977,7.891,4.711,12.905c0.579,0.133,1.144,0.262,1.676,0.383C95.678,26.129,96,26.533,96,27v10   c0,0.477-0.337,0.887-0.804,0.98l-0.205,0.041c-0.038,1.682-0.22,5.096-1.011,9.169c-1.214,6.263-3.331,11.073-6.432,14.638   l0.386,29.182c13.102,8.763,14.816,29.247,15.034,33.99h19.998l-0.965-28.967L123,20.429z"/><rect x="51" y="81" width="9" height="6"/><rect x="62" y="81" width="4" height="44"/><path d="M27.366,121h9.689c-0.022-0.333-0.056-0.664-0.056-1c0-2.161,0.45-4.248,1.339-6.202l0.104-0.225   c0.235-0.499,0.831-0.715,1.331-0.478c0.5,0.236,0.713,0.832,0.478,1.331l-0.092,0.197C39.39,116.318,39,118.126,39,120   c0,1.723,0.36,3.399,1.034,5H60V89h-6C33.433,89,28.533,110.897,27.366,121z"/><path d="M90.681,123c-0.14,0.676-0.321,1.344-0.555,2h10.841c-0.024-0.501-0.066-1.186-0.135-2H90.681z"/><path d="M90.944,121h9.686C99.459,110.897,94.55,89,74,89h-6v36h19.966c0.674-1.601,1.034-3.277,1.034-5   c0-1.874-0.39-3.682-1.159-5.374l-0.093-0.199c-0.235-0.499-0.022-1.095,0.478-1.331c0.5-0.237,1.095-0.021,1.331,0.478   l0.105,0.227C90.55,115.752,91,117.839,91,120C91,120.336,90.967,120.667,90.944,121z"/><path d="M35.021,38.424c0.059,1.687,0.263,4.794,0.96,8.386c0.379,1.954,0.859,3.737,1.419,5.392C37.14,50.78,37,49.374,37,48   v-0.971h0.004C37.004,47.019,37,47.01,37,47v-8.18L35.021,38.424z"/><path d="M89,33.832C85.665,33.227,72.797,31,64,31s-21.665,2.227-25,2.832v12.491l14.017,5.606l10.642-3.869   C63.769,48.021,63.885,48,64,48s0.231,0.021,0.342,0.061l10.642,3.869L89,46.323V33.832z M43,45c0,0.553-0.447,1-1,1s-1-0.447-1-1   v-5c0-0.553,0.447-1,1-1s1,0.447,1,1V45z M43,37c0,0.553-0.447,1-1,1s-1-0.447-1-1v-1c0-0.553,0.447-1,1-1s1,0.447,1,1V37z"/><path d="M27.166,123c-0.068,0.814-0.11,1.499-0.134,2h10.842c-0.235-0.656-0.416-1.324-0.555-2H27.166z"/></g><text x="0" y="143" fill="#000000" font-size="5px" font-weight="bold" font-family="'Helvetica Neue', Helvetica, Arial-Unicode, Arial, Sans-serif">Created by Amethyst Studio</text><text x="0" y="148" fill="#000000" font-size="5px" font-weight="bold" font-family="'Helvetica Neue', Helvetica, Arial-Unicode, Arial, Sans-serif">from the Noun Project</text></svg>